<svg xmlns="http://www.w3.org/2000/svg" viewBox="0 0 1080 1920" preserveAspectRatio="xMidYMid slice">
<defs>
  <linearGradient id="sky" x1="0" y1="0" x2="0" y2="1">
    <stop offset="0" stop-color="#07182e"/>
    <stop offset=".46" stop-color="#123a5f"/>
    <stop offset="1" stop-color="#061525"/>
  </linearGradient>
  <radialGradient id="moon" cx=".72" cy=".15" r=".16">
    <stop offset="0" stop-color="#dbeafe" stop-opacity=".95"/>
    <stop offset=".45" stop-color="#93c5fd" stop-opacity=".28"/>
    <stop offset="1" stop-color="#0b2845" stop-opacity="0"/>
  </radialGradient>
  <filter id="blur"><feGaussianBlur stdDeviation="18"/></filter>
</defs>
<rect width="1080" height="1920" fill="url(#sky)"/>
<rect width="1080" height="1920" fill="url(#moon)"/>
<g fill="#0a2239" opacity=".88">
  <path d="M0 80h120l48 115 52-70 55 150 68-110 70 170 55-115 88 180v400H0z"/>
  <path d="M1080 95H930l-40 120-66-80-54 160-70-90-75 180-60-120-65 135v400h580z"/>
</g>
<g fill="#0b2b46" opacity=".7">
  <path d="M0 540l135-160 35 120 82-95 45 180 86-135 54 170 75-90 60 160v420H0z"/>
  <path d="M1080 520l-120-170-40 150-86-105-40 180-88-128-55 165-76-85-62 162v421h567z"/>
</g>
<g fill="#0a1b2c">
  <rect x="75" y="0" width="28" height="1920" opacity=".5"/>
  <rect x="980" y="0" width="34" height="1920" opacity=".48"/>
  <path d="M0 1540c170-120 320-115 485 5s330 125 595-30v405H0z"/>
</g>
<g fill="#dbeafe" opacity=".08" filter="url(#blur)">
  <ellipse cx="530" cy="720" rx="420" ry="150"/>
  <ellipse cx="560" cy="1250" rx="500" ry="180"/>
</g>
<g fill="#fef3c7">
  <circle cx="145" cy="1310" r="3"/><circle cx="875" cy="1180" r="3"/><circle cx="730" cy="1460" r="2.8"/>
  <circle cx="340" cy="1000" r="2.6"/><circle cx="940" cy="900" r="2.3"/>
</g>
</svg>